<?xml version="1.0" standalone="no"?>
<!DOCTYPE svg PUBLIC "-//W3C//DTD SVG 20010904//EN"
 "http://www.w3.org/TR/2001/REC-SVG-20010904/DTD/svg10.dtd">
<svg version="1.0" xmlns="http://www.w3.org/2000/svg"
 width="555.000000pt" height="555.000000pt" viewBox="0 0 555.000000 555.000000"
 preserveAspectRatio="xMidYMid meet">
<metadata>
Created by potrace 1.14, written by Peter Selinger 2001-2017
</metadata>
<g transform="translate(0.000000,555.000000) scale(0.100000,-0.100000)"
fill="#000000" stroke="none">
<path d="M2790 5153 c0 -5 -12 -21 -28 -38 -15 -16 -52 -59 -82 -95 -30 -36
-57 -67 -61 -70 -21 -18 -269 -313 -266 -316 2 -2 103 -33 225 -69 l222 -66
102 31 c124 37 247 74 306 91 47 14 50 18 25 40 -10 8 -34 35 -53 59 -19 24
-48 58 -65 76 -16 17 -39 43 -50 57 -11 13 -43 51 -71 83 -28 33 -84 96 -123
142 -70 80 -81 90 -81 75z"/>
<path d="M1489 4769 c-11 -51 -47 -325 -43 -331 3 -4 2 -8 -3 -8 -4 0 -8 -10
-9 -22 -1 -26 -14 -132 -20 -163 -4 -18 -11 -72 -19 -132 -1 -13 1 -23 4 -23
4 0 52 14 106 31 55 17 111 33 124 36 13 2 32 8 42 14 10 5 29 10 43 11 15 1
26 5 26 9 0 3 6 6 13 6 6 0 31 6 54 12 37 10 58 30 155 142 62 72 132 152 155
177 29 32 38 49 30 53 -10 6 -235 74 -277 84 -8 2 -17 4 -20 6 -3 1 -9 3 -15
4 -5 2 -12 4 -15 5 -3 1 -12 3 -20 5 -8 2 -62 18 -120 35 -58 17 -114 34 -125
37 -47 12 -65 15 -66 12z"/>
<path d="M3925 4723 c-82 -24 -157 -46 -165 -48 -8 -2 -16 -4 -17 -5 -3 -3 -3
-3 -53 -14 -19 -5 -39 -11 -45 -14 -5 -4 -17 -8 -26 -9 -9 -1 -53 -14 -99 -29
l-82 -26 24 -26 c14 -15 38 -42 54 -61 35 -42 174 -201 191 -219 7 -7 18 -21
26 -31 10 -16 210 -82 377 -126 8 -2 31 -9 50 -14 19 -6 36 -11 38 -11 4 0 -8
122 -13 130 -1 3 -6 32 -9 65 -4 33 -9 67 -11 75 -2 8 -7 35 -9 60 -3 25 -13
92 -21 150 -8 58 -18 126 -22 153 -4 35 -10 47 -22 46 -9 -1 -83 -21 -166 -46z"/>
<path d="M2244 4516 c-15 -17 -52 -60 -83 -95 -31 -35 -60 -69 -66 -75 -5 -7
-21 -25 -35 -40 -23 -26 -23 -28 -5 -23 54 15 270 79 345 102 47 14 94 28 105
30 97 23 105 36 33 54 -29 8 -101 28 -161 46 l-107 33 -26 -32z"/>
<path d="M3300 4540 c-31 -10 -175 -53 -254 -76 l-60 -16 40 -13 c59 -20 522
-155 529 -155 7 0 -114 143 -187 222 -37 40 -46 45 -68 38z"/>
<path d="M1565 4031 c-82 -26 -159 -50 -171 -54 -11 -4 -47 -32 -78 -63 l-58
-55 4 40 c3 39 2 40 -22 34 -23 -5 -588 -171 -672 -197 l-36 -11 18 -40 c84
-181 82 -174 62 -203 -46 -65 -40 -120 20 -180 22 -23 47 -42 55 -42 7 0 13
-4 13 -10 0 -5 6 -10 13 -10 26 -1 65 -48 93 -112 15 -38 31 -68 34 -68 4 0
20 16 36 36 16 20 52 59 79 88 28 28 71 79 97 111 44 56 65 81 123 146 14 16
25 46 30 78 7 51 18 64 29 35 4 -9 13 -14 21 -10 8 3 15 2 15 -3 0 -15 66 -78
101 -96 41 -22 118 -43 141 -39 22 3 23 0 53 -191 14 -88 28 -171 30 -185 3
-14 7 -45 11 -70 3 -25 7 -52 9 -60 4 -14 11 -54 20 -110 9 -52 12 -61 23 -72
19 -19 53 18 43 45 -8 20 -13 53 -27 157 -3 19 -9 58 -14 85 -5 28 -12 68 -15
90 -14 87 -16 102 -26 155 -5 30 -12 69 -15 85 -14 72 -14 72 44 102 59 31
111 84 137 142 9 20 21 46 27 57 12 26 -14 216 -30 222 -4 1 -31 25 -61 52
-30 28 -60 50 -67 50 -22 0 -16 18 19 56 28 32 53 66 45 63 -2 -1 -70 -22
-153 -48z m76 -133 c57 -32 51 -41 -36 -53 -22 -3 -50 -8 -62 -10 -13 -3 -23
-3 -23 0 0 7 71 85 77 85 3 0 23 -10 44 -22z m-286 -55 c-2 -10 -4 -24 -4 -30
-1 -7 -12 -13 -26 -13 -24 0 -24 0 -7 30 19 33 42 41 37 13z m392 -95 c5 -29
7 -56 4 -60 -3 -3 -26 -9 -51 -13 -25 -4 -96 -15 -158 -26 -138 -24 -202 -32
-202 -25 0 6 23 34 78 97 33 38 47 43 151 55 29 3 65 10 80 14 14 5 40 9 58 9
30 1 32 -1 40 -51z m-413 -52 c-4 -23 -7 -51 -8 -64 0 -18 -5 -22 -25 -20 -15
2 -25 10 -27 23 -1 11 -5 37 -8 57 -6 34 -4 37 21 40 56 7 55 7 47 -36z m391
-106 c-58 -113 -197 -155 -317 -97 -55 27 -77 50 -58 62 5 3 29 8 52 10 24 3
54 7 68 10 47 10 75 15 120 21 25 3 63 10 85 14 67 13 67 13 50 -20z m-1029
-226 c18 -42 14 -50 -14 -33 -33 20 -51 61 -41 88 l10 25 15 -22 c8 -12 22
-38 30 -58z"/>
<path d="M3890 4066 c0 -6 273 -326 342 -401 15 -16 29 -27 32 -25 2 3 1 25
-4 50 -7 41 -18 118 -25 180 -1 14 -5 43 -9 65 l-7 40 -152 44 c-84 24 -158
46 -164 49 -7 2 -13 1 -13 -2z"/>
<path d="M2115 3980 c-4 -6 -1 -27 5 -46 19 -56 -11 -205 -56 -286 -8 -16 -13
-28 -10 -28 2 0 -4 -21 -14 -47 -300 -790 -324 -873 -274 -940 29 -39 82 -73
108 -69 18 3 21 10 22 57 1 54 10 94 45 204 22 67 39 105 49 105 3 0 19 -25
35 -55 17 -30 33 -55 38 -55 4 0 7 -6 7 -12 0 -7 10 -25 23 -40 51 -61 57 -69
57 -75 0 -22 256 -292 316 -332 53 -37 202 -107 238 -113 11 -2 21 -9 24 -16
4 -12 -15 -12 -48 1 -35 13 -50 16 -50 11 0 -5 45 -24 70 -29 8 -2 15 -4 15
-5 0 -1 16 -4 35 -6 122 -17 327 21 305 56 -2 4 25 20 60 35 36 16 75 39 87
52 12 13 19 23 16 23 -3 0 -40 -16 -84 -36 -69 -32 -87 -36 -163 -37 -116 -1
-163 8 -250 49 -97 45 -225 174 -336 338 -102 150 -101 149 -156 226 -25 36
-49 70 -52 77 -5 7 19 25 60 48 97 52 188 149 209 222 23 78 11 129 -36 161
-29 20 -43 23 -87 18 -28 -3 -67 -14 -86 -25 -19 -11 -37 -17 -40 -15 -3 3 5
29 17 57 19 43 57 146 61 167 1 3 9 29 18 59 24 78 22 155 -5 200 -30 51 -76
89 -117 101 -45 12 -48 12 -56 0z m201 -673 c1 -15 -7 -39 -17 -52 -11 -13
-19 -28 -19 -33 0 -5 -7 -13 -16 -16 -8 -3 -12 -11 -8 -17 4 -8 3 -9 -5 -5 -6
4 -14 0 -17 -8 -3 -9 -29 -33 -58 -53 -28 -21 -54 -42 -58 -48 -4 -5 -8 -7 -8
-3 0 4 -16 0 -35 -8 -20 -8 -35 -10 -35 -4 0 19 50 119 75 148 13 16 22 32 18
36 -3 3 -1 6 6 6 17 0 42 26 33 35 -4 5 -2 5 4 2 6 -3 20 1 30 11 11 9 26 18
34 20 8 2 19 8 25 13 20 20 50 5 51 -24z"/>
<path d="M3500 3924 c-135 -58 -239 -230 -395 -649 -58 -155 -90 -264 -99
-330 -5 -34 -18 -52 -92 -122 -82 -79 -195 -150 -216 -137 -32 20 -23 86 24
192 12 26 22 49 23 52 1 3 11 27 23 53 12 27 22 52 22 57 0 5 24 59 54 122 73
152 73 149 36 192 -34 38 -140 96 -176 96 -20 0 -23 -5 -22 -37 0 -47 -26
-124 -107 -317 -34 -83 -66 -164 -69 -181 -4 -16 -9 -41 -12 -55 -3 -14 -5
-57 -5 -96 -1 -138 49 -188 177 -181 107 6 158 35 300 169 l32 30 17 -52 c19
-58 75 -126 115 -142 42 -17 111 -9 167 17 28 14 91 63 140 108 l88 82 7 -53
c18 -123 81 -179 171 -152 32 9 64 34 133 106 50 52 94 94 98 94 3 0 6 -10 6
-23 0 -47 30 -123 59 -151 45 -43 114 -47 182 -12 28 15 58 33 66 39 29 23
168 152 198 185 17 17 34 32 37 32 3 0 8 -26 12 -57 8 -73 12 -98 21 -148 4
-22 8 -52 8 -67 1 -37 11 -28 37 37 l23 56 39 -43 39 -42 -51 -111 c-28 -60
-50 -121 -50 -134 0 -13 7 -71 15 -130 9 -58 18 -122 20 -141 9 -61 16 -105
20 -118 3 -8 28 4 72 33 37 25 77 50 88 55 11 6 72 43 135 84 63 41 161 103
217 138 56 35 103 68 103 75 0 7 -12 25 -27 41 -16 16 -44 48 -64 73 -21 24
-50 58 -65 74 -40 42 -108 125 -112 136 -2 4 38 48 88 96 121 116 143 159 100
198 -20 18 -21 18 -37 -6 -8 -13 -61 -68 -116 -122 l-100 -99 -34 39 c-71 80
-70 74 -22 155 80 137 129 242 129 277 0 27 -9 42 -42 75 -24 22 -42 46 -40
53 2 7 20 50 41 95 101 218 133 290 129 293 -6 6 -581 177 -653 194 -16 5 -41
11 -54 16 -23 7 -23 7 -16 -41 4 -27 9 -60 11 -74 8 -62 45 -307 49 -327 3
-13 24 -44 48 -71 181 -206 175 -195 146 -248 -13 -24 -25 -44 -27 -44 -1 0
-17 16 -35 37 -54 62 -109 119 -104 108 3 -6 8 -35 12 -65 3 -30 8 -64 10 -75
3 -11 7 -42 10 -68 2 -27 7 -52 10 -57 3 -4 -15 -34 -40 -66 -51 -68 -61 -79
-141 -155 -242 -228 -243 -90 -3 358 91 169 103 198 95 218 -7 20 -124 95
-148 95 -11 0 -30 -19 -49 -47 -16 -27 -33 -48 -37 -48 -4 0 -37 15 -74 33
-87 44 -147 46 -213 8 -51 -30 -155 -133 -155 -153 0 -7 -4 -13 -9 -13 -11 0
-69 -108 -107 -202 -18 -42 -39 -87 -48 -100 -33 -48 -163 -171 -226 -213
-106 -73 -156 -68 -165 16 -9 89 83 410 120 418 45 8 208 149 291 252 92 114
174 276 182 361 5 58 4 59 -35 96 -72 69 -134 86 -203 56z m144 -132 c-2 -66
-81 -232 -154 -323 -27 -34 -50 -67 -50 -72 0 -6 -2 -8 -5 -5 -3 3 -26 -15
-52 -38 -83 -78 -81 -62 16 136 114 231 144 284 183 323 49 50 63 44 62 -21z
m434 -518 c18 -5 20 -9 11 -20 -6 -8 -8 -14 -5 -14 4 0 -2 -13 -13 -29 -11
-15 -18 -31 -14 -35 3 -3 2 -6 -4 -6 -6 0 -18 -19 -28 -42 -9 -24 -29 -64 -45
-90 -16 -25 -26 -49 -22 -54 4 -4 1 -4 -5 0 -7 4 -13 3 -13 -2 0 -5 -16 -30
-35 -56 -20 -25 -34 -46 -31 -46 3 0 -5 -11 -17 -24 -52 -57 -92 -110 -89
-120 2 -6 1 -8 -3 -4 -8 7 -44 -24 -39 -33 2 -4 -5 -9 -16 -12 -31 -8 -36 41
-15 153 7 41 82 204 127 280 12 19 34 48 50 64 15 17 28 33 28 37 0 4 9 11 20
14 11 4 17 11 14 17 -4 6 -3 9 2 5 5 -3 20 1 34 9 27 14 71 18 108 8z m622
-157 c0 -10 -7 -29 -16 -42 -9 -14 -13 -25 -9 -25 4 0 2 -7 -5 -16 -12 -13
-16 -12 -37 10 l-23 25 27 45 c23 38 29 42 45 33 10 -7 18 -20 18 -30z"/>
<path d="M2778 3824 c-4 -3 -2 -18 2 -34 5 -16 6 -57 4 -92 -10 -127 -10 -130
8 -142 20 -12 104 13 139 42 73 61 50 165 -46 212 -39 19 -95 26 -107 14z"/>
<path d="M1397 3283 c-41 -11 -143 -94 -152 -124 -7 -20 -41 -26 -47 -8 -2 5
-12 11 -23 13 -20 3 -22 22 -9 91 4 20 -26 -9 -101 -99 -16 -19 -45 -43 -65
-53 -19 -10 -38 -22 -41 -26 -3 -5 -10 -9 -15 -8 -20 1 -54 -12 -54 -20 0 -5
-5 -9 -10 -9 -6 0 -46 -16 -90 -36 -64 -29 -81 -42 -89 -66 -6 -17 -8 -35 -5
-40 4 -6 -15 -7 -49 -3 -86 10 -217 -35 -217 -75 0 -4 16 -18 35 -30 19 -12
35 -27 36 -33 7 -86 13 -99 54 -121 38 -21 38 -27 -15 -86 -93 -105 -170 -199
-170 -206 1 -5 66 -49 145 -99 79 -49 144 -93 145 -97 0 -5 4 -8 9 -8 6 0 76
-43 157 -95 82 -52 149 -93 151 -91 5 4 9 29 18 96 3 30 9 69 11 85 3 17 7 41
9 55 6 46 17 125 20 149 4 21 -18 74 -114 285 -18 38 -28 72 -24 77 4 4 25 14
46 23 l38 15 40 -85 c22 -47 42 -84 44 -82 4 4 10 36 19 108 4 25 8 54 10 65
3 11 5 27 5 36 1 9 30 28 76 48 106 47 125 64 125 112 0 21 5 40 10 40 42 5
82 3 120 -6 44 -12 76 -12 87 -1 3 2 0 20 -6 39 -7 21 -8 43 -3 58 12 31 6 46
-35 92 -25 28 -32 44 -27 59 19 60 7 75 -49 61z m33 -160 c15 -11 20 -23 17
-46 l-3 -32 -75 0 c-41 0 -79 -4 -85 -8 -17 -10 -37 19 -29 43 3 11 11 18 16
15 5 -4 9 2 9 11 0 10 21 37 46 62 l47 45 18 -38 c10 -21 28 -44 39 -52z
m-230 -95 c18 -40 34 -78 37 -85 3 -7 -17 -23 -46 -37 -48 -25 -87 -34 -78
-18 5 6 11 51 23 156 9 78 23 75 64 -16z m-300 -57 c0 -6 -4 -12 -9 -15 -5 -4
6 -38 25 -76 19 -39 34 -74 34 -79 0 -7 -70 -41 -85 -41 -3 0 -15 21 -28 47
-14 31 -29 48 -40 48 -12 0 -24 13 -33 33 l-14 33 63 29 c67 31 87 35 87 21z
m-171 -145 c19 -12 12 -27 -32 -70 -23 -22 -49 -52 -57 -64 -14 -21 -18 -23
-43 -11 -27 12 -31 22 -27 67 1 13 -6 35 -15 49 -14 21 -15 27 -4 34 16 9 161
5 178 -5z"/>
<path d="M1116 2163 c-3 -10 -8 -38 -10 -63 -3 -25 -7 -54 -10 -65 -3 -16 -14
-89 -18 -124 -2 -23 15 -38 123 -106 66 -42 122 -75 124 -73 2 1 -5 21 -16 43
-10 22 -56 122 -103 223 -57 124 -86 178 -90 165z"/>
<path d="M4435 2098 c-21 -45 -54 -117 -73 -158 -19 -41 -47 -104 -63 -139
-16 -35 -28 -65 -26 -68 2 -2 15 6 30 17 14 11 30 20 36 20 6 0 11 4 11 10 0
5 11 12 25 16 14 3 25 9 25 13 0 3 27 22 59 41 66 38 63 32 45 145 -3 17 -7
54 -11 84 -12 110 -15 111 -58 19z"/>
<path d="M2201 1903 c5 -50 2 -52 -65 -49 -56 3 -64 1 -63 -14 1 -14 12 -18
56 -19 30 0 58 -6 61 -11 15 -25 -3 -71 -40 -97 -41 -31 -92 -87 -89 -100 1
-4 -1 -20 -5 -36 -9 -29 17 -83 34 -72 5 3 11 1 14 -4 7 -10 39 -5 74 12 16 8
25 8 30 1 7 -12 42 -15 42 -4 0 3 -5 11 -11 17 -7 7 -6 15 5 25 8 9 12 18 9
22 -4 3 1 6 11 6 9 0 15 4 12 8 -3 5 4 15 15 22 10 8 19 20 19 26 0 6 7 17 15
24 8 7 12 16 9 21 -3 5 0 9 6 9 6 0 9 4 6 9 -3 5 0 14 8 20 10 8 20 6 42 -11
15 -13 24 -16 19 -8 -4 8 -4 11 0 7 12 -11 17 -34 20 -89 1 -26 -2 -45 -7 -42
-7 5 -12 -10 -9 -29 1 -5 -2 -6 -7 -3 -5 3 -20 -5 -33 -17 -13 -12 -25 -21
-26 -19 -2 1 -4 2 -5 1 -2 0 -14 -3 -27 -5 -32 -6 -37 -12 -24 -25 9 -9 24 -8
57 2 25 7 46 16 46 20 0 3 11 11 25 17 14 6 25 18 25 27 0 8 5 15 11 15 6 0 9
7 5 15 -3 8 -1 15 4 15 14 0 4 88 -12 107 -7 9 -30 27 -51 40 -22 13 -36 27
-33 30 7 8 -13 33 -26 33 -5 0 -7 -4 -4 -9 8 -12 -16 -30 -39 -30 -11 0 -34
-2 -52 -6 -30 -6 -31 -5 -30 30 1 19 6 35 11 36 6 0 31 3 56 5 25 3 63 6 85 7
40 3 60 27 36 42 -6 3 -11 3 -11 -2 0 -4 -12 -8 -27 -9 -16 -1 -54 -4 -86 -7
l-57 -6 4 35 c4 29 1 34 -15 34 -13 0 -20 -6 -18 -17z m98 -225 c-13 -24 -22
-47 -21 -51 1 -5 -2 -6 -7 -2 -6 3 -15 -5 -22 -17 -12 -22 -12 -22 -20 -3 -4
11 -8 41 -8 66 l-1 47 48 9 c26 5 48 5 50 2 2 -4 -7 -27 -19 -51z m-112 -5 c0
-10 3 -40 6 -66 5 -53 -7 -67 -67 -72 -30 -3 -32 -1 -34 32 -2 25 5 45 24 71
15 19 23 32 17 29 -7 -4 -14 -3 -18 2 -3 6 3 8 15 6 11 -2 22 0 25 6 10 15 31
10 32 -8z"/>
<path d="M2803 1913 c-10 -3 -10 -10 -2 -25 16 -29 0 -36 -84 -32 -78 3 -93
-1 -77 -20 7 -9 39 -13 104 -12 52 1 93 0 91 -2 -2 -2 3 -19 11 -37 7 -19 10
-36 6 -38 -4 -2 -55 -4 -113 -3 -93 1 -105 -1 -106 -16 -2 -16 11 -17 115 -17
141 1 142 1 140 -8 -1 -5 4 -21 10 -36 7 -16 12 -30 12 -31 0 -2 -16 -2 -35
-1 -50 4 -40 -18 14 -29 33 -7 45 -6 57 6 13 13 12 18 -7 42 -12 15 -19 30
-15 33 3 3 1 12 -5 19 -8 10 -8 15 2 18 8 2 27 8 43 13 16 5 30 17 32 27 2 13
-2 16 -14 11 -9 -4 -28 -9 -41 -11 -14 -3 -28 -7 -32 -10 -5 -3 -17 13 -29 36
-11 22 -19 41 -18 41 3 2 46 9 66 11 6 1 12 5 12 10 0 4 3 7 8 6 4 -2 7 2 7 7
0 11 -25 12 -71 2 -29 -5 -33 -3 -44 23 -13 31 -15 32 -37 23z"/>
<path d="M3270 1899 c0 -5 -1 -12 -2 -16 -2 -3 4 -8 12 -9 96 -21 120 -26 151
-30 27 -3 38 0 42 10 7 18 -1 24 -30 21 -13 -1 -23 1 -23 5 0 3 -8 6 -17 6
-10 1 -34 4 -53 8 -65 13 -80 14 -80 5z"/>
<path d="M3215 1808 c-3 -7 -7 -38 -10 -68 -2 -30 -7 -74 -10 -97 -3 -31 -1
-43 8 -43 14 0 47 20 33 20 -5 0 4 10 20 22 16 12 32 27 36 33 4 5 8 7 8 4 0
-4 16 -1 36 6 33 11 85 13 124 4 23 -6 51 -51 48 -79 -4 -34 -35 -66 -83 -86
-22 -9 -41 -16 -42 -15 -2 0 -30 1 -64 1 -52 0 -60 -2 -57 -17 3 -15 14 -18
68 -16 36 0 72 3 80 5 8 3 27 8 43 13 15 4 27 11 27 17 0 5 4 7 9 3 15 -9 50
49 55 91 4 30 0 45 -20 71 -14 19 -29 31 -34 28 -4 -3 -10 0 -12 7 -4 12 -94
16 -133 6 -44 -12 -85 -30 -81 -37 3 -4 -4 -7 -14 -8 -14 -1 -18 4 -14 20 2
12 6 46 9 75 5 43 3 52 -10 52 -9 0 -18 -6 -20 -12z"/>
<path d="M1054 1748 c-1 -28 -4 -53 -55 -387 -21 -145 -37 -266 -35 -269 8 -7
632 -5 645 2 8 5 7 14 -3 34 -17 30 -116 243 -116 248 0 13 -82 174 -95 184
-8 7 -15 9 -15 5 0 -4 -18 7 -39 24 -21 17 -44 31 -50 31 -6 0 -11 5 -11 10 0
6 -5 10 -10 10 -6 0 -51 27 -101 60 -110 75 -115 77 -115 48z"/>
<path d="M4505 1757 c-11 -7 -22 -14 -25 -17 -3 -3 -17 -12 -31 -20 -14 -8
-79 -49 -144 -90 -118 -75 -118 -75 -150 -145 -18 -38 -49 -106 -70 -150 -33
-72 -55 -121 -60 -135 -1 -3 -12 -26 -24 -53 -12 -26 -20 -51 -17 -55 2 -4
147 -7 322 -6 245 1 319 4 322 14 3 7 -1 47 -8 89 -7 42 -13 85 -15 96 -4 37
-19 140 -20 145 -1 3 -5 32 -9 65 -5 33 -10 67 -11 75 -2 8 -6 40 -11 70 -4
30 -8 60 -9 65 -1 6 -3 22 -3 38 -2 30 -7 32 -37 14z"/>
<path d="M2648 1608 c-4 -56 3 -83 24 -103 27 -25 30 -26 128 -30 92 -5 117 1
123 26 4 16 2 19 -15 13 -42 -13 -147 -10 -186 5 -39 16 -40 17 -38 64 1 39
-2 47 -16 47 -11 0 -19 -8 -20 -22z"/>
<path d="M1580 1436 c0 -4 32 -76 78 -176 16 -36 40 -89 52 -117 17 -40 28
-53 44 -54 34 -1 319 -1 346 0 23 1 21 3 -15 24 -22 13 -75 46 -117 75 -42 29
-81 52 -86 52 -5 0 -17 9 -27 20 -10 11 -24 20 -32 20 -7 0 -13 5 -13 10 0 6
-5 10 -10 10 -6 0 -58 32 -115 70 -58 39 -105 69 -105 66z"/>
<path d="M3938 1395 c-37 -25 -70 -45 -73 -45 -4 0 -13 -6 -20 -12 -7 -7 -43
-31 -79 -53 -151 -91 -309 -195 -298 -196 7 0 82 0 167 0 85 0 171 0 191 0 34
1 36 4 65 69 17 37 41 90 54 117 48 103 74 165 67 165 -4 0 -37 -20 -74 -45z"/>
<path d="M1790 977 c0 -4 15 -40 34 -80 33 -70 58 -127 98 -217 29 -65 60
-132 111 -243 l46 -97 48 30 c26 16 86 54 133 84 47 30 158 100 247 156 90 56
165 106 169 111 3 5 -8 17 -25 27 -17 9 -31 20 -31 25 0 4 -4 7 -10 7 -9 0
-207 125 -235 147 -5 5 -28 20 -50 33 -40 25 -42 25 -287 25 -137 0 -248 -3
-248 -8z"/>
<path d="M2488 979 c11 -9 232 -152 268 -173 l31 -19 84 53 c111 71 219 141
219 143 0 2 -137 2 -305 2 -167 0 -301 -2 -297 -6z"/>
<path d="M3219 938 c-41 -26 -133 -84 -206 -129 l-132 -83 77 -51 c42 -27 160
-103 262 -168 102 -65 208 -133 236 -152 l51 -33 53 111 c29 61 75 160 102
221 75 166 88 195 119 264 16 34 29 64 29 65 0 2 -117 3 -259 2 l-259 0 -73
-47z"/>
</g>
</svg>
